<?xml version="1.0" encoding="utf-8"?>
<!-- Generator: Adobe Illustrator 25.4.1, SVG Export Plug-In . SVG Version: 6.00 Build 0)  -->
<svg version="1.1" id="Layer_1" xmlns="http://www.w3.org/2000/svg" xmlns:xlink="http://www.w3.org/1999/xlink" x="0px" y="0px"
	 viewBox="0 0 84.2 31.3" style="enable-background:new 0 0 84.2 31.3;" xml:space="preserve">
<style type="text/css">
	.st0{fill-rule:evenodd;clip-rule:evenodd;fill:#E30016;}
	.st1{fill-rule:evenodd;clip-rule:evenodd;fill:#F49200;}
</style>
<path class="st0" d="M59.8,0.7l-0.5,3c-1-0.5-1.7-0.7-2.5-0.7c-2.1,0-3.5,2.1-3.5,5.1c0,2.1,1,3.3,2.6,3.3c0.7,0,1.4-0.2,2.4-0.7
	l-0.5,3.1c-1,0.3-1.7,0.4-2.5,0.4c-3,0-4.9-2.3-4.9-5.9c0-4.9,2.6-8.3,6.3-8.3c0.5,0,0.9,0,1.3,0.1l1.1,0.3
	C59.5,0.6,59.6,0.6,59.8,0.7z"/>
<path class="st0" d="M50.6,2.7c-0.1,0-0.2,0-0.3,0c-0.9,0-1.4,0.5-2.3,1.8l0.2-1.7h-2.5L44,13.9h2.8c1-6.8,1.3-7.9,2.6-7.9
	c0.1,0,0.1,0,0.2,0C49.9,4.6,50.2,3.6,50.6,2.7L50.6,2.7z"/>
<path class="st0" d="M33.9,13.7c-0.8,0.2-1.4,0.4-2,0.4c-1.4,0-2.2-0.9-2.2-2.4c0-0.3,0-0.6,0.1-1L30,9.6l0.1-0.9l1.2-7.5h2.8
	l-0.3,1.6h1.4l-0.4,2.7h-1.4l-0.7,4.6c0,0.2,0,0.4,0,0.5c0,0.6,0.3,0.8,0.9,0.8c0.3,0,0.6,0,0.8-0.1L33.9,13.7z"/>
<path class="st0" d="M22.9,6.3c0,1.4,0.6,2.4,2.1,3.1c1.1,0.6,1.3,0.7,1.3,1.2c0,0.7-0.5,1-1.6,1c-0.8,0-1.6-0.1-2.5-0.4l-0.4,2.5
	l0.6,0.1c0.2,0,0.4,0.1,0.7,0.1c0.7,0.1,1.2,0.1,1.5,0.1c2.9,0,4.3-1.2,4.3-3.7c0-1.5-0.6-2.4-2-3.1c-1.2-0.6-1.3-0.7-1.3-1.2
	c0-0.6,0.5-0.9,1.4-0.9c0.6,0,1.3,0.1,2,0.2l0.4-2.6c-0.7-0.1-1.8-0.2-2.5-0.2C24,2.6,22.9,4.3,22.9,6.3z"/>
<path class="st0" d="M82,13.9h-2.6l0.1-1.1C78.8,13.6,78,14,77,14c-2,0-3.4-1.8-3.4-4.6c0-3.7,2.1-6.8,4.5-6.8
	c1.1,0,1.9,0.5,2.7,1.5l0.6-3.9h2.7L82,13.9z M77.9,11.3c1.3,0,2.2-1.5,2.2-3.7c0-1.4-0.5-2.2-1.5-2.2c-1.3,0-2.2,1.5-2.2,3.7
	C76.5,10.5,77,11.3,77.9,11.3z"/>
<path class="st0" d="M42.7,13.6c-1,0.3-1.9,0.5-2.9,0.4c-3.1,0-4.7-1.7-4.7-4.9c0-3.8,2.1-6.6,4.9-6.6c2.3,0,3.8,1.6,3.8,4
	c0,0.8-0.1,1.6-0.3,2.7h-5.5c0,0.2,0,0.2,0,0.3c0,1.3,0.8,1.9,2.4,1.9c1,0,1.9-0.2,2.9-0.7L42.7,13.6z M41.2,7.1c0-0.2,0-0.4,0-0.6
	c0-0.9-0.5-1.4-1.3-1.4c-0.9,0-1.5,0.7-1.8,2L41.2,7.1z"/>
<path class="st0" d="M11.7,13.9H8.9l1.6-10.4L7,13.9H5.1L4.8,3.5L3.2,13.9H0.5L2.7,0.3h4l0.1,8.4l2.7-8.4h4.3L11.7,13.9z"/>
<path class="st0" d="M18.9,9c-0.3,0-0.4,0-0.6,0c-1.6,0-2.4,0.6-2.4,1.7c0,0.7,0.4,1.1,1,1.1C18,11.7,18.8,10.6,18.9,9z M20.9,13.9
	h-2.3l0.1-1.1c-0.7,0.9-1.6,1.3-2.9,1.3c-1.5,0-2.5-1.2-2.5-3c0-2.7,1.8-4.3,4.9-4.3c0.3,0,0.7,0,1.1,0.1c0.1-0.4,0.1-0.5,0.1-0.7
	c0-0.7-0.5-1-1.8-1c-0.8,0-1.7,0.1-2.3,0.3l-0.4,0.1l-0.3,0.1L15,3.2c1.4-0.4,2.3-0.6,3.3-0.6c2.4,0,3.7,1.1,3.7,3.2
	c0,0.5,0,1-0.2,2.2l-0.6,3.9l-0.1,0.7L21,13.2l0,0.4L20.9,13.9z"/>
<path class="st0" d="M64.6,9c-0.3,0-0.4,0-0.6,0c-1.6,0-2.4,0.6-2.4,1.7c0,0.7,0.4,1.1,1,1.1C63.8,11.7,64.6,10.6,64.6,9z
	 M66.7,13.9h-2.3l0.1-1.1c-0.7,0.9-1.6,1.3-2.9,1.3c-1.5,0-2.6-1.2-2.6-3c0-2.7,1.8-4.3,4.9-4.3c0.3,0,0.7,0,1.1,0.1
	c0.1-0.4,0.1-0.5,0.1-0.7c0-0.7-0.5-1-1.8-1c-0.8,0-1.7,0.1-2.3,0.3l-0.4,0.1l-0.3,0.1l0.4-2.5c1.4-0.4,2.3-0.6,3.3-0.6
	c2.4,0,3.7,1.1,3.7,3.2c0,0.5,0,1-0.2,2.2l-0.6,3.9l-0.1,0.7l-0.1,0.6l0,0.4L66.7,13.9z"/>
<path class="st0" d="M74.5,2.7c-0.1,0-0.2,0-0.3,0c-0.9,0-1.4,0.5-2.3,1.8l0.3-1.7h-2.5l-1.7,11.1h2.8c1-6.8,1.3-7.9,2.6-7.9
	c0.1,0,0.1,0,0.2,0C73.7,4.6,74.1,3.6,74.5,2.7L74.5,2.7z"/>
<path class="st1" d="M62.8,24.6c0,2.5-0.8,4-2,4c-0.9,0-1.4-1-1.4-2.5c0-1.8,0.8-3.8,2.1-3.8C62.4,22.4,62.8,23.5,62.8,24.6z
	 M65.5,24.6c0-2.8-1.4-4.9-4-4.9c-3,0-4.9,2.6-4.9,6.5c0,2.8,1.1,5.1,4,5.1C63.4,31.3,65.5,29.3,65.5,24.6z"/>
<path class="st1" d="M57.5,17.7l-0.4,3c-0.9-0.5-1.6-0.7-2.3-0.7c-1.9,0-3.3,2.1-3.3,5.1c0,2.1,0.9,3.3,2.4,3.3
	c0.7,0,1.4-0.2,2.2-0.7l-0.4,3.1c-1,0.3-1.6,0.4-2.3,0.4c-2.8,0-4.5-2.3-4.5-5.9c0-4.9,2.4-8.3,5.9-8.3c0.4,0,0.8,0.1,1.2,0.1
	l1.1,0.3C57.2,17.6,57.2,17.6,57.5,17.7z"/>
<path class="st1" d="M40.2,19.8c-0.1,0-0.2,0-0.3,0c-0.8,0-1.3,0.5-2.1,1.8l0.2-1.7h-2.4l-1.6,11.1h2.6c0.9-6.8,1.2-7.9,2.4-7.9
	c0.1,0,0.1,0,0.2,0C39.6,21.7,39.9,20.7,40.2,19.8L40.2,19.8z"/>
<path class="st1" d="M74.2,30.8h-2.5l0.1-1.1c-0.7,0.9-1.4,1.2-2.4,1.2c-1.9,0-3.1-1.8-3.1-4.6c0-3.7,1.9-6.8,4.2-6.8
	c1,0,1.8,0.5,2.5,1.5l0.6-3.9h2.6L74.2,30.8z M70.4,28.2c1.2,0,2.1-1.5,2.1-3.7c0-1.4-0.5-2.2-1.4-2.2c-1.2,0-2,1.5-2,3.7
	C69,27.5,69.5,28.2,70.4,28.2z"/>
<path class="st1" d="M15.8,30.8c-0.9,0.3-1.7,0.4-2.7,0.4c-2.9,0-4.4-1.7-4.4-4.9c0-3.8,1.9-6.6,4.5-6.6c2.1,0,3.5,1.6,3.5,4
	c0,0.8-0.1,1.6-0.3,2.7h-5.2c0,0.2,0,0.2,0,0.3c0,1.3,0.8,1.9,2.3,1.9c0.9,0,1.8-0.2,2.7-0.7L15.8,30.8z M14.4,24.2
	c0-0.2,0-0.4,0-0.6c0-0.9-0.5-1.4-1.2-1.4c-0.8,0-1.4,0.7-1.7,2L14.4,24.2z"/>
<path class="st1" d="M46.8,30.8c-0.9,0.3-1.8,0.4-2.7,0.4c-2.9,0-4.4-1.7-4.4-4.9c0-3.8,1.9-6.6,4.5-6.6c2.1,0,3.5,1.6,3.5,4
	c0,0.8-0.1,1.6-0.3,2.7h-5.2c0,0.2,0,0.2,0,0.3c0,1.3,0.8,1.9,2.3,1.9c0.9,0,1.8-0.2,2.7-0.7L46.8,30.8z M45.3,24.2
	c0-0.2,0-0.4,0-0.6c0-0.9-0.5-1.4-1.2-1.4c-0.8,0-1.4,0.7-1.7,2L45.3,24.2z"/>
<path class="st1" d="M83.1,30.8c-0.9,0.3-1.8,0.4-2.7,0.4c-2.9,0-4.4-1.7-4.4-4.9c0-3.8,1.9-6.6,4.5-6.6c2.1,0,3.5,1.6,3.5,4
	c0,0.8-0.1,1.6-0.3,2.7h-5.2c0,0.2,0,0.2,0,0.3c0,1.3,0.8,1.9,2.3,1.9c0.9,0,1.8-0.2,2.7-0.7L83.1,30.8z M81.6,24.2
	c0-0.2,0-0.4,0-0.6c0-0.9-0.5-1.4-1.2-1.4c-0.8,0-1.4,0.7-1.7,2L81.6,24.2z"/>
<path class="st1" d="M8.1,20.3c-0.5-0.3-1.2-0.6-2.2-0.6c-1.1,0-1.9,0.2-1.9,1.3c0,2,3.8,1.2,3.8,5.4c0,3.8-2.5,4.8-4.8,4.8
	c-1,0-2.2-0.3-3.1-0.7l0.6-2.8c0.5,0.5,1.6,0.8,2.4,0.8c0.8,0,2.1-0.2,2.1-1.6c0-2.2-3.8-1.4-3.8-5.3c0-3.6,2.2-4.6,4.4-4.6
	c1.2,0,2.4,0.2,3,0.6L8.1,20.3z"/>
<path class="st1" d="M23.4,30.8c-0.5,0.2-1.3,0.4-2.3,0.4c-2.3,0-3.7-2.3-3.7-5c0-3.6,2-6.5,5-6.5c0.7,0,1.7,0.3,2.5,0.7l-0.6,2.6
	c-0.6-0.4-1.1-0.6-1.7-0.6c-1.4,0-2.4,1.3-2.4,3.5c0,1.3,0.7,2.4,1.9,2.4c0.7,0,1.2-0.2,1.7-0.5L23.4,30.8z"/>
<path class="st1" d="M33.2,28c-0.1,0.9-0.3,1.9-0.3,2.9h-2.5l0.2-1.8h0c-0.8,1.2-1.6,2-3,2c-1.6,0-2.4-1.6-2.4-3.8
	c0-0.7,0-1.1,0.2-2.3l0.7-5.1h2.8L28,25c-0.1,0.6-0.2,1.1-0.2,1.7c0,0.6,0.3,1.3,1,1.3c1.1,0,1.8-1.4,2-3l0.8-5h2.7L33.2,28z"/>
</svg>
