<!--?xml version="1.0" standalone="no"?-->
              <svg id="sw-js-blob-svg" viewBox="0 0 100 100" xmlns="http://www.w3.org/2000/svg" version="1.1">
                    <defs> 
                        <linearGradient id="sw-gradient" x1="0" x2="1" y1="1" y2="0">
                            <stop id="stop1" stop-color="rgba(10, 137, 83, 1)" offset="0%"></stop>
                            <stop id="stop2" stop-color="rgba(10, 137, 83, 1)" offset="100%"></stop>
                        </linearGradient>
                    </defs>
                <path fill="url(#sw-gradient)" d="M19.9,-26C25.9,-27.1,31,-21.8,32,-15.8C32.9,-9.7,29.8,-2.9,28.2,3.7C26.7,10.3,26.7,16.8,22.9,18.1C19,19.4,11.2,15.5,4.5,19.1C-2.1,22.7,-7.7,33.9,-14,36.9C-20.3,39.9,-27.4,34.9,-28.2,27.9C-28.9,20.8,-23.3,11.7,-19.1,6C-15,0.2,-12.3,-2.1,-13.6,-9.1C-14.9,-16.1,-20.2,-27.9,-18.6,-28.7C-17,-29.6,-8.5,-19.5,-0.8,-18.3C7,-17.1,13.9,-24.8,19.9,-26Z" width="100%" height="100%" transform="translate(50 50)" stroke-width="0" style="transition: all 0.3s ease 0s;" stroke="url(#sw-gradient)"></path>
              </svg>