<!--?xml version="1.0" standalone="no"?-->
              <svg id="sw-js-blob-svg" viewBox="0 0 100 100" xmlns="http://www.w3.org/2000/svg" version="1.1">
                    <defs> 
                        <linearGradient id="sw-gradient" x1="0" x2="1" y1="1" y2="0">
                            <stop id="stop1" stop-color="rgba(10, 137, 83, 1)" offset="0%"></stop>
                            <stop id="stop2" stop-color="rgba(10, 137, 83, 1)" offset="100%"></stop>
                        </linearGradient>
                    </defs>
                <path fill="url(#sw-gradient)" d="M15.5,-15C22.8,-12.4,33.1,-10.1,36.5,-4.4C39.9,1.2,36.3,10,30.9,16.3C25.4,22.7,18.3,26.5,12.1,25.5C5.9,24.4,0.7,18.4,-4.7,15.4C-10,12.3,-15.5,12.2,-17.6,9.7C-19.7,7.1,-18.4,2,-17.3,-2.8C-16.2,-7.7,-15.3,-12.4,-12.4,-15.7C-9.6,-19,-4.8,-20.9,-0.3,-20.6C4.2,-20.2,8.3,-17.5,15.5,-15Z" width="100%" height="100%" transform="translate(50 50)" stroke-width="0" style="transition: all 0.3s ease 0s;" stroke="url(#sw-gradient)"></path>
              </svg>