<!--?xml version="1.0" standalone="no"?-->
              <svg id="sw-js-blob-svg" viewBox="0 0 100 100" xmlns="http://www.w3.org/2000/svg" version="1.1">
                    <defs> 
                        <linearGradient id="sw-gradient" x1="0" x2="1" y1="1" y2="0">
                            <stop id="stop1" stop-color="rgba(10, 137, 83, 1)" offset="0%"></stop>
                            <stop id="stop2" stop-color="rgba(10, 137, 83, 1)" offset="100%"></stop>
                        </linearGradient>
                    </defs>
                <path fill="url(#sw-gradient)" d="M20.8,-28.7C26.9,-28.5,31.7,-22.6,36,-15.7C40.4,-8.8,44.4,-0.9,38.4,1.9C32.4,4.7,16.4,2.5,10.3,8.2C4.3,14,8.2,27.6,7.2,30.8C6.2,34,0.2,26.7,-6.8,24.2C-13.9,21.7,-22,23.9,-23.3,21C-24.5,18.1,-18.8,10,-15.3,4.9C-11.7,-0.1,-10.3,-2.1,-11.8,-8.1C-13.3,-14.2,-17.8,-24.4,-16.3,-26.6C-14.8,-28.9,-7.4,-23.2,0,-23.2C7.4,-23.2,14.8,-28.8,20.8,-28.7Z" width="100%" height="100%" transform="translate(50 50)" stroke-width="0" style="transition: all 0.3s ease 0s;" stroke="url(#sw-gradient)"></path>
              </svg>