<?xml version="1.0" encoding="iso-8859-1"?>
<!-- Generator: Adobe Illustrator 16.0.0, SVG Export Plug-In . SVG Version: 6.00 Build 0)  -->
<!DOCTYPE svg PUBLIC "-//W3C//DTD SVG 1.1//EN" "http://www.w3.org/Graphics/SVG/1.1/DTD/svg11.dtd">
<svg version="1.1" id="Capa_1" xmlns="http://www.w3.org/2000/svg" xmlns:xlink="http://www.w3.org/1999/xlink" x="0px" y="0px"
	 width="151.902px" height="151.902px" viewBox="0 0 151.902 151.902" style="enable-background:new 0 0 151.902 151.902;"
	 xml:space="preserve">
<g>
	<path d="M151.58,50.351c0.147-0.187,0.322-0.377,0.322-0.63c0-0.319-0.111-0.599-0.301-0.831
		c-1.793-4.63-18.357-45.362-43.385-45.362c-4.161,0-8.343,1.163-12.461,3.43c-2.289,1.263-5.042,4.778-5.601,8.765
		c-0.354,2.565,0.232,4.968,1.698,7.045c-3.069,0.886-5.97,2.354-8.448,4.44c-4.171,3.499-6.747,8.287-7.515,13.563
		c-0.765-5.276-3.335-10.049-7.515-13.563c-2.473-2.102-5.374-3.554-8.451-4.44c1.474-2.078,2.067-4.48,1.706-7.045
		c-0.562-3.986-3.307-7.501-5.601-8.765c-4.111-2.268-8.3-3.43-12.458-3.43c-25.969,0-42.82,43.865-43.529,45.745
		c-0.032,0.076-0.005,0.155-0.021,0.242C0.005,49.602,0,49.661,0,49.758c0,0.308,0.077,0.611,0.28,0.864l0,0l0,0l0,0
		C0.512,50.897,0.841,51,1.187,51.044c0.045,0,0.071,0.053,0.114,0.053c0.039,0,0.071-0.042,0.113-0.042
		c0.061-0.011,0.113,0.021,0.174,0.011c6.123-1.329,11.301-1.973,15.839-1.973c4.358,0,8.192,0.578,12.435,1.859
		c9.258,2.797,15.293,3.984,20.176,3.984c7.219,0,12.037-2.71,15.604-8.817c2.9-4.947,3.673-9.606,2.292-13.867
		c-0.375-1.152-0.902-2.162-1.493-3.111c0.061,0.053,0.137,0.087,0.195,0.135c4.023,3.375,6.449,8.068,6.826,13.215
		c0.918,12.559-8.047,19.266-22.739,29.17c-3.008,2.014-6.157,3.916-9.484,5.906c-14.692,8.817-29.887,17.909-31.421,38.19
		c-0.644,8.554,2.165,16.58,7.91,22.603c6.114,6.407,15.04,10.014,24.624,10.014c0.38,0,0.762,0,1.147-0.011
		c7.509-0.231,14.481-3.364,19.638-8.843c5.018-5.321,7.668-12.261,7.604-19.538c1.187,0.11,2.223,0.152,2.979,0.152
		c0.313,0,0.524-0.01,0.73-0.021v0.321c0,0.084,0.079,0.132,0.098,0.222v6.392v18.879c0,0.743,0.604,1.35,1.35,1.35
		c0.743,0,1.351-0.606,1.351-1.35v-18.879v-6.392c0.016-0.09,0.095-0.138,0.095-0.222v-0.321c0.211,0.011,0.416,0.021,0.73,0.021
		c0.757,0,1.793-0.042,2.979-0.152c-0.074,7.287,2.584,14.217,7.604,19.538c5.158,5.479,12.129,8.611,19.639,8.843
		c0.38,0.011,0.77,0.011,1.149,0.011c9.577,0,18.51-3.606,24.622-10.014c5.742-6.012,8.554-14.049,7.91-22.603
		c-1.529-20.281-16.732-29.373-31.414-38.19c-3.333-1.991-6.476-3.892-9.487-5.906c-14.702-9.904-23.656-16.611-22.738-29.17
		c0.385-5.147,2.8-9.84,6.829-13.215c0.053-0.053,0.132-0.087,0.189-0.135c-0.58,0.949-1.118,1.959-1.487,3.111
		c-1.382,4.261-0.611,8.92,2.289,13.867c3.564,6.106,8.385,8.817,15.609,8.817l0,0c4.883,0,10.916-1.192,20.176-3.984
		c4.24-1.276,8.079-1.859,12.435-1.859c4.535,0,9.714,0.644,15.842,1.973c0.09,0.021,0.189,0.031,0.269,0.021
		c0.011,0,0.011,0.01,0.011,0.01l0,0c0.011-0.01,0.021,0,0.032,0c0.332-0.053,0.675-0.211,0.938-0.453
		c0.021-0.011,0.047-0.011,0.058-0.021C151.569,50.52,151.548,50.422,151.58,50.351z M8.796,36.944l6.858,0.168
		c-4.438,3.045-8.245,5.951-10.956,8.1C5.724,42.96,7.095,40.11,8.796,36.944z M14.278,27.781c0.074,0.032,0.108,0.113,0.195,0.135
		l11.393,2.71c-2.257,1.318-4.477,2.668-6.589,4.05C19.143,34.624,19.04,34.5,18.89,34.5l-8.625-0.211
		C11.475,32.171,12.825,29.972,14.278,27.781z M16.978,39.52L16,46.449c-2.969,0.074-6.235,0.433-9.779,1.021
		C8.857,45.394,12.63,42.534,16.978,39.52z M19.997,37.463c2.31-1.54,4.756-3.056,7.24-4.525l-2.225,14.109
		c-2.041-0.346-4.143-0.551-6.286-0.588L19.997,37.463z M29.315,28.677l-13.444-3.195c1.577-2.236,3.272-4.409,5.086-6.476
		c0.135,0.211,0.259,0.432,0.504,0.551l13.547,6.286C33.107,26.715,31.206,27.657,29.315,28.677z M47.105,24.364L44.792,51.73
		c-2.272-0.335-4.796-0.833-7.786-1.605c0-0.021,0.011-0.021,0.011-0.032l3.04-23.538C42.488,25.611,44.864,24.828,47.105,24.364z
		 M48.524,21.505L32.854,9.092c2.732-1.458,5.622-2.365,8.62-2.679c0.047,0.253,0.09,0.507,0.279,0.707l14.041,14.441
		C53.578,21.083,51.116,21.139,48.524,21.505z M58.962,16.074c0.211,1.495-0.053,2.877-0.701,4.147L44.711,6.289
		c3.328,0.187,6.692,1.17,10.012,3.019C56.215,10.128,58.514,12.941,58.962,16.074z M30.391,10.587l14.665,11.609
		c-2.207,0.562-4.458,1.242-6.771,2.172L22.642,17.1C25.046,14.6,27.649,12.39,30.391,10.587z M27.654,47.665l2.587-16.435
		c2.315-1.273,4.638-2.455,6.942-3.48l-2.795,21.652c-1.226-0.345-2.394-0.654-3.744-1.062
		C29.613,48.031,28.648,47.896,27.654,47.665z M47.477,52.049l2.365-28.065c0.185-0.011,0.382-0.053,0.562-0.074
		c0.253,0.44,0.654,0.781,1.205,0.686c1.793-0.179,3.578-0.034,5.339,0.264l-1.959,26.167c-0.011,0.169,0.103,0.288,0.145,0.443
		c-1.529,0.443-3.174,0.741-5.097,0.741C49.254,52.205,48.357,52.123,47.477,52.049z M63.316,44.73
		c-1.562,2.668-3.365,4.538-5.569,5.748L59.59,25.87c1.986,1.36,4.654,3.715,5.777,7.182C66.5,36.545,65.81,40.482,63.316,44.73z
		 M59.458,112.556c-4.271-4.34-4.654-11.433-4.622-14.254c2.89,0.011,9.904,0.507,14.175,4.842
		c4.276,4.34,4.661,11.433,4.635,14.259C70.746,117.398,63.729,116.902,59.458,112.556z M78.142,117.414
		c-0.026-2.816,0.358-9.92,4.63-14.254c4.282-4.351,11.296-4.836,14.186-4.847c0.031,2.811-0.348,9.903-4.63,14.26
		C88.056,116.902,81.042,117.398,78.142,117.414z M99.563,73.881c3.059,2.057,6.396,4.05,9.598,5.975
		c14.101,8.448,28.688,17.207,30.121,36.086c0.254,3.396-0.189,6.661-1.097,9.767c-0.031,0.048-0.105,0.048-0.126,0.09
		c-5.728,8.311-13.016,10.853-20.566,7.093c-2.858-1.403-5-3.839-6.033-6.86c-1.018-3.033-0.822-6.26,0.591-9.129
		c2.278-4.614,7.857-6.508,12.456-4.24c3.543,1.74,5.01,6.055,3.264,9.608c-0.675,1.371-1.851,2.32-3.201,2.764
		c0.19-0.606,0.29-1.25,0.138-1.925c-0.433-2.057-2.479-3.364-4.535-2.911c-2.078,0.443-3.375,2.468-2.922,4.546
		c0.338,1.635,1.72,2.753,3.302,2.932c3.733,1.098,7.847-0.58,9.64-4.197c2.389-4.873,0.38-10.821-4.493-13.215
		c-5.928-2.9-13.136-0.475-16.079,5.479c-1.724,3.507-1.987,7.488-0.728,11.186c1.261,3.701,3.892,6.697,7.404,8.421
		c2.652,1.318,5.311,1.962,7.91,1.962c3.485,0,6.86-1.207,9.972-3.502c-0.675,0.907-1.276,1.862-2.072,2.689
		c-5.832,6.097-14.471,9.461-23.735,9.166c-6.793-0.201-13.1-3.032-17.762-7.989c-4.63-4.915-7.071-11.333-6.897-18.072
		c3.47-0.654,7.53-2.057,10.536-5.11c6.275-6.375,5.39-17.133,5.348-17.587c-0.053-0.653-0.58-1.171-1.234-1.224
		c0,0.011-11.158-0.822-17.5,5.606c-1.587,1.618-2.718,3.491-3.517,5.437v-0.986c0-9.571,7.248-17.423,16.529-18.552
		c0.622,1.382,1.993,2.353,3.607,2.353c2.193,0,3.976-1.772,3.976-3.961c0-2.204-1.782-3.977-3.976-3.977
		c-1.825,0-3.286,1.24-3.761,2.922c-7.161,0.812-13.204,5.104-16.461,11.19V80.262c1.521-0.564,2.618-1.991,2.618-3.702
		c0-2.193-1.776-3.976-3.968-3.976c-2.199,0-3.966,1.783-3.966,3.976c0,1.693,1.097,3.138,2.616,3.702v15.451
		c-3.256-6.086-9.305-10.378-16.466-11.19c-0.469-1.682-1.938-2.922-3.757-2.922c-2.199,0-3.974,1.772-3.974,3.977
		c0,2.188,1.775,3.961,3.974,3.961c1.608,0,2.979-0.971,3.602-2.353c9.281,1.129,16.529,8.965,16.529,18.552v0.986
		c-0.799-1.93-1.928-3.828-3.515-5.437c-6.347-6.439-17.503-5.606-17.503-5.606c-0.659,0.053-1.189,0.56-1.242,1.224
		c-0.037,0.454-0.928,11.212,5.345,17.587c3.014,3.054,7.074,4.456,10.537,5.11c0.174,6.739-2.263,13.157-6.9,18.072
		c-4.662,4.957-10.969,7.788-17.756,7.989c-9.374,0.185-17.911-3.069-23.738-9.166c-0.794-0.827-1.405-1.782-2.067-2.689
		c3.104,2.305,6.473,3.502,9.967,3.502c2.592,0,5.25-0.644,7.905-1.962c3.517-1.714,6.146-4.714,7.403-8.421
		c1.263-3.713,1.01-7.679-0.722-11.196c-2.937-5.933-10.146-8.39-16.071-5.468c-4.875,2.394-6.89,8.342-4.493,13.236
		c1.783,3.586,5.891,5.289,9.624,4.176c1.582-0.168,2.964-1.297,3.314-2.932c0.454-2.078-0.846-4.103-2.921-4.546
		c-2.057-0.453-4.097,0.854-4.541,2.911c-0.147,0.664-0.055,1.318,0.14,1.925c-1.345-0.443-2.521-1.403-3.19-2.764
		c-1.745-3.554-0.282-7.868,3.262-9.608c4.577-2.277,10.173-0.363,12.456,4.24c1.411,2.869,1.616,6.106,0.591,9.129
		c-1.028,3.021-3.172,5.457-6.044,6.865c-7.538,3.713-14.834,1.213-20.558-7.098c-0.032-0.042-0.098-0.042-0.129-0.095
		c-0.901-3.091-1.345-6.36-1.092-9.767c1.427-18.879,16.013-27.622,30.122-36.092c3.214-1.919,6.534-3.929,9.601-5.969
		c13.247-8.922,22.017-15.451,23.664-25.932C77.543,58.43,86.305,64.958,99.563,73.881z M95.998,21.561L110.041,7.12
		c0.19-0.2,0.232-0.454,0.274-0.707c3.001,0.319,5.891,1.227,8.622,2.679l-15.651,12.403C100.68,21.128,98.212,21.073,95.998,21.561
		z M111.723,26.565l3.037,23.527c0,0.021,0.011,0.021,0.011,0.032c-2.984,0.772-5.516,1.255-7.783,1.605l-2.31-27.366
		C106.924,24.828,109.308,25.622,111.723,26.565z M130.834,19.006c1.813,2.067,3.512,4.24,5.083,6.476l-13.415,3.185
		c-1.898-1.02-3.797-1.961-5.706-2.823l13.542-6.286C130.581,19.438,130.703,19.217,130.834,19.006z M141.523,34.289l-8.622,0.211
		c-0.142,0-0.242,0.124-0.374,0.177c-2.114-1.382-4.329-2.732-6.587-4.05l11.37-2.71c0.095-0.021,0.126-0.113,0.2-0.135
		C138.965,29.972,140.316,32.171,141.523,34.289z M131.793,37.463l1.256,8.91c-2.136,0.065-4.219,0.266-6.275,0.633l-2.226-14.067
		C127.038,34.407,129.484,35.923,131.793,37.463z M134.81,39.52c4.293,2.988,8.026,5.801,10.663,7.878
		c-3.538-0.599-6.729-0.938-9.692-1.021L134.81,39.52z M136.139,37.118l6.855-0.169c1.698,3.167,3.069,6.001,4.092,8.258
		C144.376,43.063,140.58,40.173,136.139,37.118z M129.152,17.126l-15.625,7.259c-2.32-0.941-4.577-1.637-6.782-2.183l14.66-11.609
		C124.137,12.39,126.742,14.6,129.152,17.126z M92.833,16.074c0.443-3.132,2.742-5.951,4.24-6.781
		c3.322-1.838,6.676-2.816,10.009-3.009L93.53,20.216C92.892,18.951,92.623,17.569,92.833,16.074z M88.478,44.73
		c-2.489-4.248-3.186-8.174-2.057-11.652c1.107-3.462,3.797-5.833,5.779-7.204l1.846,24.619
		C91.842,49.268,90.039,47.398,88.478,44.73z M101.746,52.205c-1.919,0-3.564-0.309-5.094-0.741
		c0.042-0.156,0.158-0.285,0.147-0.443l-1.962-26.167c1.762-0.298,3.544-0.453,5.337-0.276c0.569,0.087,0.971-0.243,1.213-0.675
		c0.189,0.013,0.369,0.055,0.564,0.077l2.367,28.055C103.433,52.123,102.537,52.205,101.746,52.205L101.746,52.205z M121.152,48.339
		c-1.35,0.409-2.531,0.717-3.744,1.062l-2.795-21.652c2.3,1.021,4.63,2.201,6.94,3.48l2.573,16.315
		C123.135,47.778,122.16,48.042,121.152,48.339z"/>
</g>
<g>
</g>
<g>
</g>
<g>
</g>
<g>
</g>
<g>
</g>
<g>
</g>
<g>
</g>
<g>
</g>
<g>
</g>
<g>
</g>
<g>
</g>
<g>
</g>
<g>
</g>
<g>
</g>
<g>
</g>
</svg>
